<svg width="14" height="14" viewBox="0 0 14 14" fill="none" xmlns="http://www.w3.org/2000/svg">
<path d="M13.4734 12.5267L11 10.0734C11.9601 8.8763 12.425 7.35689 12.2992 5.82756C12.1734 4.29823 11.4665 2.87522 10.3237 1.85112C9.18094 0.827032 7.68923 0.279701 6.15531 0.321675C4.62139 0.363648 3.16184 0.991736 2.07679 2.07679C0.991736 3.16184 0.363648 4.62139 0.321675 6.15531C0.279701 7.68923 0.827032 9.18094 1.85112 10.3237C2.87522 11.4665 4.29823 12.1734 5.82756 12.2992C7.35689 12.425 8.8763 11.9601 10.0734 11L12.5267 13.4534C12.5887 13.5158 12.6624 13.5654 12.7436 13.5993C12.8249 13.6331 12.912 13.6506 13 13.6506C13.088 13.6506 13.1752 13.6331 13.2564 13.5993C13.3377 13.5654 13.4114 13.5158 13.4734 13.4534C13.5935 13.3291 13.6607 13.1629 13.6607 12.99C13.6607 12.8171 13.5935 12.651 13.4734 12.5267ZM6.33336 11C5.41038 11 4.50813 10.7263 3.7407 10.2136C2.97327 9.70077 2.37513 8.97194 2.02192 8.11922C1.66871 7.2665 1.5763 6.32818 1.75636 5.42294C1.93643 4.51769 2.38088 3.68617 3.03353 3.03353C3.68617 2.38088 4.51769 1.93643 5.42294 1.75636C6.32818 1.5763 7.2665 1.66871 8.11922 2.02192C8.97194 2.37513 9.70077 2.97327 10.2136 3.7407C10.7263 4.50813 11 5.41038 11 6.33336C11 7.57104 10.5084 8.75802 9.63319 9.63319C8.75802 10.5084 7.57104 11 6.33336 11Z" fill="#5E6770"/>
</svg>
